<?xml version="1.0" encoding="utf-8"?>
<?xml-stylesheet type="text/xsl" href="rss1.xsl"?>
<rss version="2.0" xmlns:atom="http://www.w3.org/2005/Atom" xmlns:content="http://purl.org/rss/1.0/modules/content/" xmlns:dc="http://purl.org/dc/elements/1.1/" xmlns:media="http://search.yahoo.com/mrss/">
<channel>
 <title>Getty</title>
 <link>http://www.gettyimg.com/</link>
 <atom:link href="http://www.gettyimg.com/" rel="self" type="application/rss+xml" />

 
                <item>
                <title><![CDATA[【Live Audios (lossy)】MP3 - Lali Cosquin Rock 2024]]></title>
                <link><![CDATA[https://sharemania.us/threads/lali-cosquin-rock-2024.237673/]]></link>
                <description><![CDATA[<article>
<blockquote class="messageText SelectQuoteContainer ugc baseHtml">
<div class="bbCodeBlock bbCodeVfcHH HiddenContent">
<div class="attribution type">Hidden Content:</div>
<blockquote>You must reply before you can see the hidden data contained here.</blockquote>
</div>
<div class="messageTextEndMarker">&nbsp;</div>
</blockquote>
</article>]]></description>
                <author><![CDATA[brendo098]]></author>
                </item>

                
                <item>
                <title><![CDATA[【Music Videos】Aqua - Lollipop (Candyman) (1080p 5.1) (Clean)]]></title>
                <link><![CDATA[https://sharemania.us/threads/aqua-lollipop-candyman-1080p-5-1-clean.237671/]]></link>
                <description><![CDATA[<article>
<blockquote class="messageText SelectQuoteContainer ugc baseHtml">
<img src="https://i.ibb.co/Zgb6pXn/Aqua-Lollipop-Candyman-1080p-5-1-mp4-thumbs-2024-02-13-14-08-10.jpg" class="bbCodeImage LbImage" alt="[​IMG]" data-url="https://i.ibb.co/Zgb6pXn/Aqua-Lollipop-Candyman-1080p-5-1-mp4-thumbs-2024-02-13-14-08-10.jpg" style=""> <br>
<br>
<div class="ToggleTriggerAnchor bbCodeSpoilerContainer">
<button type="button" class="button bbCodeSpoilerButton ToggleTrigger Tooltip JsOnly" data-target="> .SpoilerTarget"><span>Spoiler: <span class="SpoilerTitle">MediaInfo</span></span></button>
<div class="SpoilerTarget bbCodeSpoilerText">Aqua - Lollipop (Candyman) (1080p 5.1).mp4<br>
Format : MPEG-4<br>
Format profile : Base Media / Version 2<br>
Codec ID : mp42 (mp42/mp41)<br>
File size : 268 MiB<br>
Duration : 3 min 42 s<br>
Overall bit rate mode : Variable<br>
Overall bit rate : 10.1 Mb/s<br>
Frame rate : 25.000 FPS<br>
Encoded date : 2024-02-13 17:00:14 UTC<br>
Tagged date : 2024-02-13 17:00:35 UTC<br>
TIM : 00:00:00:00<br>
TSC : 25<br>
TSZ : 1<br>
<br>
Video<br>
ID : 1<br>
Format : AVC<br>
Format/Info : Advanced Video Codec<br>
Format profile : Main@L4.1<br>
Format settings : CABAC / 4 Ref Frames<br>
Format settings, CABAC : Yes<br>
Format settings, Reference : 4 frames<br>
Format settings, GOP : M=4, N=25<br>
Codec ID : avc1<br>
Codec ID/Info : Advanced Video Coding<br>
Duration : 3 min 42 s<br>
Bit rate : 9 793 kb/s<br>
Width : 1 920 pixels<br>
Height : 1 080 pixels<br>
Display aspect ratio : 16:9<br>
Frame rate mode : Constant<br>
Frame rate : 25.000 FPS<br>
Color space : YUV<br>
Chroma subsampling : 4:2:0<br>
Bit depth : 8 bits<br>
Scan type : Progressive<br>
Bits/(Pixel*Frame) : 0.189<br>
Stream size : 259 MiB (97%)<br>
Language : English<br>
Encoded date : 2024-02-13 17:00:14 UTC<br>
Tagged date : 2024-02-13 17:00:14 UTC<br>
Color range : Limited<br>
Color primaries : BT.709<br>
Transfer characteristics : BT.709<br>
Matrix coefficients : BT.709<br>
Codec configuration box : avcC<br>
<br>
Audio<br>
ID : 2<br>
Format : AAC LC<br>
Format/Info : Advanced Audio Codec Low Complexity<br>
Codec ID : mp4a-40-2<br>
Duration : 3 min 42 s<br>
Source duration : 3 min 42 s<br>
Bit rate mode : Variable<br>
Bit rate : 317 kb/s<br>
Maximum bit rate : 813 kb/s<br>
Channel(s) : 6 channels<br>
Channel layout : C L R Ls Rs LFE<br>
Sampling rate : 48.0 kHz<br>
Frame rate : 46.875 FPS (1024 SPF)<br>
Compression mode : Lossy<br>
Stream size : 8.40 MiB (3%)<br>
Source stream size : 8.40 MiB (3%)<br>
Language : English<br>
Encoded date : 2024-02-13 17:00:14 UTC<br>
Tagged date : 2024-02-13 17:00:14 UTC</div>
</div><br>
<div class="bbCodeBlock bbCodeVfcHH HiddenContent">
<div class="attribution type">Hidden Content:</div>
<blockquote>You must reply before you can see the hidden data contained here.</blockquote>
</div>
<div class="messageTextEndMarker">&nbsp;</div>
</blockquote>
</article>]]></description>
                <author><![CDATA[DJ-RoGeRs-BS]]></author>
                </item>

                
                <item>
                <title><![CDATA[【Live Audios (lossy)】MP3 - Dua Ipa New Pop Festival]]></title>
                <link><![CDATA[https://sharemania.us/threads/dua-ipa-new-pop-festival.237674/]]></link>
                <description><![CDATA[<article>
<blockquote class="messageText SelectQuoteContainer ugc baseHtml">
<div class="bbCodeBlock bbCodeVfcHH HiddenContent">
<div class="attribution type">Hidden Content:</div>
<blockquote>You must reply before you can see the hidden data contained here.</blockquote>
</div>
<div class="messageTextEndMarker">&nbsp;</div>
</blockquote>
</article>]]></description>
                <author><![CDATA[brendo098]]></author>
                </item>

                
                <item>
                <title><![CDATA[【Singles (lossless)】WAV - SOOBIN (TOMORROW X TOGETHER) - 숲 (Forest) (2024) | Label Hi-Res 24bit / 48kHz]]></title>
                <link><![CDATA[https://sharemania.us/threads/soobin-tomorrow-x-together-%EC%88%B2-forest-2024-label-hi-res-24bit-48khz.237672/]]></link>
                <description><![CDATA[<article>
<blockquote class="messageText SelectQuoteContainer ugc baseHtml">
<div style="text-align: center"><img src="https://jpopsuki.eu/static/images/torrents/393025.jpg" class="bbCodeImage LbImage" alt="[​IMG]" data-url="https://jpopsuki.eu/static/images/torrents/393025.jpg" style=""> <br>
<div class="bbCodeBlock bbCodeVfcHH HiddenContent">
<div class="attribution type">Hidden Content:</div>
<blockquote>You must either reply or click 'Like' to see the hidden information contained here.</blockquote>
</div></div>
<div class="messageTextEndMarker">&nbsp;</div>
</blockquote>
</article>]]></description>
                <author><![CDATA[2NE1]]></author>
                </item>

                </channel></rss>